# xmcd CD database file
#
# Track frame offsets:
#	150
#	16212
#	25935
#	35450
#	48127
#	62782
#	72090
#	86885
#	96890
#	111142
#	122785
#	132497
#	146070
#	160057
#	170187
#	183495
#	193940
#	204762
#	219792
#	235040
#
# Disc length: 3244 seconds
#
# Revision: 3
# Processed by: cddbd v1.5.2PL0 Copyright (c) Steve Scherf et al.
# Submitted via: CDex 1.60beta1
#
DISCID=1b0caa14
DTITLE=The Country Gentlemen - Sugar Hill Collection
DYEAR=1995
DGENRE=Bluegrass
TTITLE0=Come And Sit By The River
TTITLE1=Meet Me Over on the Other Side
TTITLE2=The Likes Of You
TTITLE3=Darby's Castle
TTITLE4=Sit Down Young Stranger
TTITLE5=It's Just Like Heaven
TTITLE6=For The First Time
TTITLE7=South Elm Street
TTITLE8=Blue Ridge Mountains Turning Green
TTITLE9=The Lonely Dancer
TTITLE10=Riverboat Fantasy
TTITLE11=God's Coloring Book
TTITLE12=River Bottom
TTITLE13=Coal, Black Gold
TTITLE14=The In Crowd
TTITLE15=Electricity
TTITLE16=I'm Lonesome Without You
TTITLE17=Loving Her Was Easier Than Anything I'll Ever Do Again
TTITLE18=Things In Life
TTITLE19=Honey Don't
EXTD=YEAR: 1995
EXTT0=The Country Gentlemen:  Charlie Waller, Bill Yates, Doyle Lawson, James Bailey, Rick Allred, Kent Dowell\nGuests: Mike Auldridge, Ronnie Bucke, Chuck and The Country Cats, Ed Ferris, Spider Gilliam
EXTT1=
EXTT2=
EXTT3=
EXTT4=
EXTT5=
EXTT6=
EXTT7=
EXTT8=
EXTT9=
EXTT10=
EXTT11=
EXTT12=
EXTT13=
EXTT14=
EXTT15=
EXTT16=
EXTT17=
EXTT18=
EXTT19=
PLAYORDER=
